<svg width="52" height="19" viewBox="0 0 52 19" fill="none" xmlns="http://www.w3.org/2000/svg">
<path d="M7.936 10.68V9.256C7.936 9.16 7.904 9.08 7.84 9.016C7.776 8.952 7.68 8.904 7.584 8.904H3.344V6.008H9.008C9.104 6.008 9.2 5.976 9.264 5.912C9.328 5.848 9.376 5.752 9.376 5.64V4.168C9.376 4.072 9.328 3.976 9.264 3.912C9.2 3.848 9.104 3.8 9.008 3.8H1.296C1.184 3.8 1.104 3.848 1.04 3.912C0.976 3.976 0.944 4.056 0.944 4.152V14.632C0.944 14.744 0.976 14.84 1.04 14.904C1.104 14.968 1.184 15 1.296 15H2.976C3.072 15 3.152 14.968 3.232 14.904C3.296 14.84 3.344 14.744 3.344 14.632V11.048H7.584C7.68 11.048 7.776 11.016 7.84 10.936C7.904 10.872 7.936 10.776 7.936 10.68Z" fill="black"/>
<path d="M27.672 11.112C27.672 10.84 27.72 10.584 27.816 10.344C27.912 10.104 28.04 9.896 28.216 9.72C28.376 9.544 28.584 9.4 28.824 9.288C29.048 9.192 29.304 9.128 29.576 9.128C29.848 9.128 30.104 9.192 30.328 9.288C30.552 9.4 30.76 9.544 30.936 9.72C31.096 9.896 31.24 10.104 31.336 10.344C31.432 10.584 31.48 10.84 31.48 11.112C31.48 11.384 31.432 11.64 31.336 11.88C31.24 12.136 31.096 12.344 30.936 12.52C30.76 12.696 30.552 12.84 30.328 12.936C30.104 13.048 29.848 13.096 29.576 13.096C29.304 13.096 29.048 13.048 28.824 12.936C28.584 12.84 28.376 12.696 28.216 12.52C28.04 12.344 27.912 12.136 27.816 11.88C27.72 11.64 27.672 11.384 27.672 11.112ZM25.336 11.096C25.336 11.736 25.432 12.296 25.656 12.808C25.88 13.32 26.168 13.752 26.52 14.104C26.872 14.472 27.288 14.744 27.768 14.936C28.232 15.128 28.712 15.224 29.224 15.224C29.736 15.224 30.2 15.128 30.584 14.936C30.968 14.744 31.256 14.488 31.48 14.168V14.664C31.48 14.76 31.512 14.84 31.576 14.904C31.64 14.968 31.72 15 31.816 15H33.432C33.528 15 33.608 14.968 33.672 14.904C33.736 14.84 33.768 14.76 33.768 14.664V4.136C33.768 4.04 33.736 3.96 33.672 3.896C33.608 3.832 33.528 3.8 33.432 3.8H31.816C31.72 3.8 31.624 3.832 31.56 3.896C31.496 3.96 31.464 4.04 31.464 4.136V8.008C31.272 7.72 30.984 7.48 30.584 7.288C30.184 7.096 29.72 6.984 29.192 6.984C28.68 6.984 28.2 7.08 27.736 7.272C27.272 7.464 26.856 7.752 26.504 8.104C26.152 8.456 25.864 8.888 25.656 9.4C25.432 9.912 25.336 10.472 25.336 11.096ZM36.3091 6.376C36.6771 6.376 36.9971 6.248 37.2691 5.96C37.5411 5.688 37.6851 5.368 37.6851 4.984C37.6851 4.6 37.5411 4.28 37.2691 3.992C36.9971 3.72 36.6771 3.576 36.3091 3.576C35.9251 3.576 35.5891 3.72 35.3171 3.992C35.0451 4.28 34.9171 4.6 34.9171 4.984C34.9171 5.368 35.0451 5.688 35.3171 5.96C35.5891 6.248 35.9251 6.376 36.3091 6.376ZM35.4931 15H37.1091C37.2051 15 37.2851 14.968 37.3491 14.904C37.4131 14.84 37.4451 14.744 37.4451 14.648V7.56C37.4451 7.464 37.4131 7.384 37.3491 7.32C37.2851 7.256 37.2051 7.208 37.1091 7.208H35.4931C35.3971 7.208 35.3011 7.256 35.2371 7.32C35.1731 7.384 35.1411 7.464 35.1411 7.56V14.648C35.1411 14.744 35.1731 14.84 35.2371 14.904C35.3011 14.968 35.3971 15 35.4931 15ZM42.6046 6.984C41.9966 6.984 41.4526 7.096 40.9406 7.32C40.4286 7.544 39.9966 7.832 39.6286 8.2C39.2606 8.584 38.9726 9.016 38.7806 9.528C38.5726 10.04 38.4766 10.568 38.4766 11.144C38.4766 11.72 38.5726 12.264 38.7806 12.76C38.9726 13.256 39.2606 13.688 39.6286 14.056C39.9966 14.424 40.4286 14.712 40.9406 14.92C41.4526 15.128 42.0126 15.224 42.6366 15.224C43.5006 15.224 44.2046 15.08 44.7486 14.792C45.2926 14.504 45.7406 14.136 46.0606 13.72C46.1086 13.656 46.1406 13.576 46.1406 13.48C46.1406 13.384 46.0926 13.304 45.9966 13.24L44.7646 12.44C44.6686 12.376 44.5886 12.36 44.5246 12.392C44.4606 12.424 44.3966 12.472 44.3486 12.52C44.1246 12.776 43.8846 12.952 43.6286 13.08C43.3726 13.208 43.0526 13.272 42.6846 13.272C42.2206 13.272 41.8206 13.128 41.4686 12.84C41.1166 12.552 40.9086 12.168 40.8606 11.672H46.2046C46.3646 11.672 46.4606 11.64 46.5246 11.56C46.5726 11.496 46.6046 11.4 46.6046 11.304V10.872C46.6046 10.376 46.5086 9.896 46.3166 9.416C46.1246 8.952 45.8686 8.536 45.5166 8.184C45.1646 7.832 44.7486 7.544 44.2686 7.32C43.7726 7.096 43.2126 6.984 42.6046 6.984ZM44.3326 10.232H40.9086C41.0206 9.8 41.2286 9.464 41.5486 9.208C41.8686 8.968 42.2206 8.84 42.6206 8.84C42.9886 8.84 43.3406 8.952 43.6766 9.176C43.9966 9.4 44.2206 9.752 44.3326 10.232ZM50.3001 10.808L50.3161 4.152C50.3161 4.056 50.2681 3.976 50.2041 3.912C50.1401 3.848 50.0441 3.8 49.9481 3.8H48.2681C48.1561 3.8 48.0601 3.848 47.9961 3.912C47.9161 3.976 47.8841 4.056 47.8841 4.152L47.9161 10.808C47.9161 10.904 47.9481 11 48.0121 11.064C48.0761 11.144 48.1721 11.176 48.2841 11.176H49.9321C50.0281 11.176 50.1241 11.144 50.1881 11.064C50.2521 11 50.3001 10.904 50.3001 10.808ZM49.1001 15.224C49.5161 15.224 49.8681 15.08 50.1721 14.792C50.4601 14.504 50.6201 14.136 50.6201 13.72C50.6201 13.304 50.4601 12.952 50.1721 12.664C49.8681 12.376 49.5161 12.216 49.1001 12.216C48.8921 12.216 48.7001 12.264 48.5241 12.344C48.3321 12.424 48.1721 12.536 48.0441 12.664C47.9001 12.792 47.7881 12.952 47.7081 13.128C47.6281 13.32 47.5961 13.512 47.5961 13.72C47.5961 13.928 47.6281 14.12 47.7081 14.312C47.7881 14.504 47.9001 14.664 48.0441 14.792C48.1721 14.92 48.3321 15.032 48.5241 15.112C48.7001 15.192 48.8921 15.224 49.1001 15.224Z" fill="black"/>
<path d="M12 9L16.5 5M16.5 5L21 9M16.5 5C16.1667 4.66667 15.7 3.4 16.5 1" stroke="#09400B"/>
<circle cx="21.5" cy="11.5" r="3.5" fill="#F95B29"/>
<circle cx="12.5" cy="11.5" r="3.5" fill="#F95B29"/>
</svg>
